<?xml version="1.0" standalone="no"?>
<!DOCTYPE svg PUBLIC "-//W3C//DTD SVG 20010904//EN"
 "http://www.w3.org/TR/2001/REC-SVG-20010904/DTD/svg10.dtd">
<svg version="1.0" xmlns="http://www.w3.org/2000/svg"
 width="1042.000000pt" height="1042.000000pt" viewBox="0 0 1042.000000 1042.000000"
 preserveAspectRatio="xMidYMid meet">
<metadata>
Created by potrace 1.14, written by Peter Selinger 2001-2017
</metadata>
<g transform="translate(0.000000,1042.000000) scale(0.100000,-0.100000)"
fill="#000000" stroke="none">
<path d="M3479 8276 c-2 -2 -47 -7 -99 -10 -102 -7 -147 -12 -225 -26 -27 -5
-66 -12 -85 -14 -117 -18 -422 -88 -895 -206 -340 -85 -565 -172 -733 -284
-83 -55 -176 -152 -215 -223 -33 -62 -67 -189 -67 -252 0 -25 -7 -84 -14 -131
-14 -83 -14 -110 0 -200 16 -96 49 -188 123 -334 67 -134 68 -137 42 -132
-324 69 -647 -38 -906 -298 -123 -123 -200 -240 -249 -375 -33 -91 -36 -109
-41 -208 -5 -104 18 -198 73 -293 24 -42 42 -88 46 -117 3 -26 8 -60 11 -75
12 -68 15 -86 21 -128 3 -25 9 -48 12 -52 4 -3 36 27 72 68 64 72 80 83 86 53
8 -40 34 -195 34 -204 0 -5 31 23 69 64 l68 74 69 -22 c38 -12 83 -26 99 -31
43 -13 186 -39 264 -48 79 -8 379 -9 436 -1 100 15 403 193 691 405 l56 41 37
-41 c51 -58 126 -129 194 -183 31 -25 57 -47 57 -49 0 -2 -62 -108 -139 -236
-157 -265 -261 -440 -276 -466 -6 -9 -23 -38 -38 -64 -15 -25 -29 -54 -31 -65
-7 -35 -20 -125 -31 -203 -3 -25 -8 -52 -10 -60 -2 -8 -7 -39 -10 -69 -4 -30
-8 -62 -10 -72 -2 -10 -11 -69 -20 -131 -9 -62 -19 -126 -21 -143 -3 -16 -7
-43 -10 -60 -5 -41 -24 -174 -29 -204 -2 -13 -7 -45 -11 -70 -3 -25 -8 -57
-10 -71 -17 -106 -24 -151 -29 -190 -3 -25 -7 -56 -10 -70 -3 -14 -8 -45 -11
-70 -6 -46 -11 -84 -20 -132 -2 -16 -1 -28 3 -29 5 0 17 -2 28 -4 11 -2 40 -7
65 -10 25 -3 52 -8 60 -10 8 -2 38 -6 65 -10 28 -3 65 -8 83 -11 20 -4 32 -2
33 5 1 6 2 14 3 19 1 4 6 34 10 67 5 33 10 69 11 80 2 11 6 34 9 50 2 17 7 50
11 75 3 25 8 56 10 70 2 14 7 43 10 65 3 23 7 50 9 60 2 11 7 43 10 70 9 66
16 113 22 150 3 17 7 41 9 55 2 14 11 75 20 135 9 61 18 126 21 145 3 19 7 46
9 60 5 27 40 267 50 335 10 71 15 84 49 138 18 28 42 68 52 87 19 35 344 582
350 588 1 2 38 -16 81 -40 88 -49 195 -102 329 -163 60 -27 90 -46 89 -55 -8
-46 -16 -91 -25 -140 -6 -30 -13 -66 -16 -80 -3 -14 -7 -32 -9 -40 -2 -8 -7
-29 -10 -47 -3 -17 -39 -202 -80 -410 -42 -208 -78 -394 -81 -413 -3 -19 -8
-44 -11 -55 -8 -23 -9 -28 -17 -77 -3 -21 -10 -57 -16 -80 -18 -79 -15 -82
118 -103 18 -3 65 -12 105 -21 107 -23 108 -23 148 -29 30 -5 38 -2 43 12 4
16 57 284 70 353 2 14 23 117 45 230 23 113 44 216 46 230 6 33 12 64 25 126
6 28 13 64 16 80 3 16 12 63 21 104 8 41 17 84 19 95 12 63 26 125 27 125 1 0
38 -11 81 -25 66 -21 110 -34 171 -51 6 -2 35 -10 65 -19 30 -9 62 -18 70 -20
8 -2 83 -20 165 -41 83 -20 152 -38 153 -40 2 -1 -27 -50 -65 -108 -293 -454
-348 -540 -346 -545 1 -3 4 -80 7 -171 4 -91 8 -194 11 -230 2 -36 7 -132 10
-215 3 -82 7 -188 10 -235 3 -47 7 -137 10 -200 2 -63 7 -173 11 -245 3 -71 7
-159 9 -195 1 -36 3 -70 4 -77 1 -12 24 -12 281 2 47 2 100 4 118 4 l33 1 -6
123 c-3 67 -7 169 -10 227 -3 58 -7 157 -10 220 -3 63 -8 162 -10 220 -3 58
-7 152 -10 210 -3 58 -8 168 -11 245 -4 77 -7 154 -8 171 -1 34 1 38 277 464
174 268 142 244 302 221 50 -7 99 -15 110 -17 10 -2 37 -6 60 -9 22 -4 51 -8
65 -10 36 -6 97 -13 160 -20 30 -4 66 -8 80 -10 14 -2 53 -6 88 -10 l63 -7 -5
-37 c-3 -20 -8 -52 -11 -71 -3 -19 -7 -49 -10 -67 -2 -18 -6 -40 -9 -50 -2
-10 -7 -40 -11 -68 -3 -27 -10 -77 -15 -110 -5 -33 -12 -78 -15 -100 -3 -22
-8 -51 -10 -65 -4 -22 -8 -45 -20 -130 -6 -46 -17 -115 -21 -135 -3 -11 -7
-38 -9 -60 -3 -22 -7 -47 -10 -55 -2 -8 -7 -40 -10 -70 -4 -30 -10 -74 -15
-97 -5 -30 -4 -43 4 -44 6 0 20 -2 31 -4 11 -2 38 -6 60 -10 22 -3 49 -7 60
-9 111 -20 258 -37 265 -30 4 5 11 34 15 64 10 81 14 107 20 138 3 15 7 47 10
72 3 25 10 68 15 95 5 28 16 100 25 160 9 61 18 121 20 135 7 50 17 115 20
130 8 45 17 103 19 123 3 26 19 130 21 137 1 3 5 31 9 63 l8 58 142 -6 c250
-11 367 -14 587 -14 l216 -1 38 -57 c39 -58 42 -78 30 -153 -2 -14 -9 -72 -15
-130 -6 -58 -13 -121 -15 -140 -7 -62 -15 -134 -20 -180 -8 -76 -22 -203 -30
-260 -3 -19 -7 -62 -10 -95 -3 -33 -7 -69 -9 -80 -2 -11 -7 -54 -11 -95 -4
-41 -8 -82 -10 -90 -1 -8 -6 -51 -11 -95 -4 -44 -8 -82 -9 -85 -1 -3 -5 -41
-9 -85 -5 -44 -9 -87 -11 -95 -1 -8 -6 -42 -9 -75 -4 -33 -9 -79 -12 -102 -5
-37 -3 -43 13 -45 10 0 29 -2 43 -3 14 -2 50 -6 80 -9 56 -8 67 -9 180 -21
117 -14 112 -15 116 30 4 50 14 140 19 180 4 26 24 203 41 360 2 28 7 66 9 85
2 19 7 58 10 85 2 28 7 70 11 95 3 25 7 65 9 90 4 47 14 127 20 170 2 14 6 54
9 90 3 36 8 74 10 85 2 11 7 54 11 95 4 41 8 82 10 90 2 8 6 49 10 90 4 41 9
83 11 94 8 43 18 165 19 222 0 53 2 60 20 60 28 1 193 14 235 19 19 2 62 7 95
10 33 3 74 8 90 10 17 2 53 7 80 10 28 3 77 10 110 15 33 5 83 12 110 16 28 3
70 10 95 14 25 5 46 8 46 7 3 -3 14 -181 19 -292 3 -55 7 -145 10 -200 12
-200 15 -262 20 -375 3 -63 7 -142 9 -175 3 -33 8 -127 11 -210 9 -190 10
-200 22 -198 5 1 72 5 149 9 143 7 240 12 261 13 9 1 11 17 8 54 -4 47 -12
214 -20 387 -5 100 -14 275 -20 375 -3 50 -8 142 -11 205 -3 63 -7 144 -9 180
-2 36 -6 122 -10 192 l-7 127 39 10 c21 6 84 24 140 39 80 23 107 27 122 18
18 -10 131 -82 399 -253 53 -35 106 -67 117 -73 11 -5 45 -27 75 -48 50 -34
55 -41 54 -72 -1 -19 -4 -87 -8 -150 -3 -63 -8 -162 -11 -220 -9 -209 -16
-357 -20 -445 -3 -49 -7 -137 -10 -195 -2 -58 -7 -159 -10 -225 l-6 -120 28
-1 c41 -1 322 -14 366 -17 31 -2 37 1 38 18 4 62 7 124 13 245 7 152 14 283
21 428 3 53 7 149 10 212 10 234 15 348 20 445 3 55 7 143 10 196 l5 96 -286
182 c-157 100 -292 185 -300 188 -8 3 -14 8 -14 12 0 3 39 26 87 51 241 125
468 311 525 430 53 112 56 219 10 400 -12 49 -80 205 -114 263 -15 26 -28 50
-28 53 0 3 -40 65 -90 138 -170 253 -437 548 -726 807 -116 104 -136 121 -264
222 -100 79 -270 195 -350 239 -25 14 -90 45 -145 70 -55 25 -129 59 -165 76
-156 71 -289 132 -345 157 -33 15 -112 51 -175 80 -525 242 -919 406 -1161
484 -202 66 -411 109 -651 136 -115 12 -137 15 -213 20 -44 3 -100 8 -125 10
-25 3 -81 8 -125 10 -95 6 -197 13 -280 20 -88 7 -190 15 -270 20 -38 3 -86 7
-105 10 -19 2 -73 7 -120 10 -47 3 -96 8 -110 10 -14 2 -61 7 -105 10 -79 5
-105 7 -240 20 -38 4 -95 9 -125 11 -30 2 -89 6 -130 10 -41 3 -104 8 -140 10
-96 6 -487 14 -491 10z"/>
</g>
</svg>
